<svg version="1" xmlns="http://www.w3.org/2000/svg" width="620" height="620" viewBox="0 0 465.000000 465.000000"><path d="M113.5 17.6c-1.1.2-4.5.9-7.5 1.5-19.5 3.9-37.7 18.6-47.1 38-7.6 15.6-8.7 36.9-2.7 53.5 1.1 3 .9 3.3-6.7 10.5-18.2 17.3-29.8 37.2-36 61.7-5.1 20.2-3.9 48.3 3 68.7 13.6 40.8 48 72.2 89.9 82.2 9.6 2.2 17.4 3.1 28.8 3.2l7.7.1 2.1 5.7c10.5 28.1 29.7 53.9 53.6 71.9 28.2 21.3 60.2 32 96 32.1 42.8.2 82.3-16 113.4-46.6 22.5-22.1 39.3-54.3 44.6-85.1.4-2.5.9-5.4 1.1-6.5.8-4.6 1.1-34.4.3-39-.4-2.8-1.1-7.1-1.4-9.6-1.5-11-6.9-28.2-12.9-40.9-23.3-49.3-68.6-82.5-123.7-90.6-12.1-1.8-40.7-.9-51.5 1.6-2.2.5-4 .9-4 .9 0-.3-8.1 1.9-15.4 4.3l-9.5 3-2-2.8c-4.3-6-16.4-17.9-23.1-22.8-7.7-5.7-17.1-11.6-18.3-11.6-.5 0-.8-5.2-.7-11.6.3-17.2-3.1-29-12.6-43-8.2-12-23.9-23-38.6-26.9-5.7-1.6-22.9-2.8-26.8-1.9z"/></svg>