<svg width="445" height="430" viewBox="0 0 445 430" xmlns="http://www.w3.org/2000/svg" role="img" aria-labelledby="title"><title id="title">InGen Productions</title><g fill="none" fill-rule="evenodd"><circle fill="#D64F60" cx="285" cy="270" r="160"/><circle fill="#5EAFC4" style="mix-blend-mode:multiply" cx="125" cy="195" r="125"/><circle fill="#FAD217" style="mix-blend-mode:multiply" cx="112" cy="70" r="70"/><g fill="#FFF"><path d="M92.075 162.52L77.795 253h-17.64l14.28-90.48h17.64zm22.394 31.56l-.84 5.4h.24c4.32-5.28 10.44-7.32 16.44-7.32 15.84 0 18.72 11.16 16.56 24.84l-5.76 36h-16.8l4.92-31.2c1.2-7.08 3-16.2-6.48-16.2-9.96 0-11.88 11.16-13.08 18.24L105.11 253h-16.8l9.36-58.92h16.8zm85.873 10.8h39l-.36 2.28c-4.08 25.56-20.76 48.24-48.84 48.24-26.4 0-39.6-22.32-35.64-47.28 4.08-25.8 24.84-48 51.84-48 15.36 0 27.48 7.8 32.28 21.6l-16.92 8.4c-2.28-8.16-9-14.4-18.36-14.4-17.04 0-28.2 17.4-30.6 32.4-2.4 15 3.48 31.68 20.52 31.68 11.04 0 21.84-9.6 24-20.52h-19.2l2.28-14.4zm94.274 21.36h-38.76c-1.08 7.44.36 15.84 9.12 15.84 5.52 0 9.6-3.36 12.6-8.04l15.12 2.52c-6 11.76-17.4 18.36-29.76 18.36-18.24 0-27.24-12.96-24.48-30.84 2.88-17.88 14.52-31.92 33.6-31.92 19.32 0 25.68 14.28 22.92 32.04l-.36 2.04zm-36.6-10.44h22.44c.12-6-2.76-11.88-9.24-11.88-6.72 0-11.4 5.76-13.2 11.88zm64.514-21.72h-16.8L296.37 253h16.8l4.56-29.16c1.2-7.08 3.12-18.24 13.08-18.24 9.48 0 7.68 9.12 6.48 16.2l-4.92 31.2h16.8l5.76-36c2.16-13.68-.72-24.84-16.56-24.84-6 0-12.12 2.04-16.44 7.32h-.24l.84-5.4zM59.913 304h-8.195l6.544-41.47h8.526c1.76 0 14.3-1.1 12.155 12.265-1.21 7.755-6.93 12.21-14.52 12.21l-1.815-.11L59.913 304zm5.5-34.705l-1.76 10.945c3.96.165 6.435-1.32 7.095-5.555.494-2.97-.276-5.39-3.796-5.39h-1.54zM86.698 304h-8.195l6.545-41.47h8.25c5.225 0 14.52.55 12.705 11.88-.715 4.565-3.135 8.47-7.59 10.725L102.648 304h-8.635l-4.18-19.14h-.11L86.697 304zm5.5-34.705l-1.76 11.055 1.43.055c3.74 0 5.61-2.53 6.16-5.94.494-2.97-.55-5.39-4.73-5.17h-1.1zm35.2-7.425c7.315 0 13.695 5.83 11.22 21.395-2.475 15.565-10.67 21.395-17.986 21.395-7.315 0-13.64-5.83-11.165-21.395 2.476-15.565 10.615-21.395 17.93-21.395zm-9.185 21.395c-.55 3.3-1.815 13.805 3.63 13.805s7.48-10.505 8.03-13.805c.55-3.685 1.76-13.805-3.685-13.805s-7.425 10.12-7.975 13.805zM146.978 304h-7.316l6.546-41.47h6.215c1.43 0 18.92-2.09 15.29 21.065-1.87 11.825-7.81 20.405-20.735 20.405zm2.035-7.37c6.545.33 9.68-7.92 10.505-13.09.825-5.28.495-13.64-6.27-13.64l-4.235 26.73zm26.125-34.1l-4.84 30.8c-1.265 7.755 2.75 11.33 10.395 11.33 11.825 0 13.53-7.48 14.19-11.88l4.784-30.25h-8.195l-4.51 28.6c-.55 3.08-1.044 6.105-5.06 6.105-4.454 0-3.3-4.73-2.804-7.865l4.234-26.84h-8.194zm50.82.275c-1.32-.495-2.64-.77-4.07-.77-11.165 0-19.69 10.56-21.285 20.845-1.76 10.89 3.135 21.56 14.96 21.56 1.32 0 2.585-.22 3.905-.715l1.21-7.755c-1.1.33-2.2.605-3.245.605-7.15 0-9.075-7.59-8.085-13.75.99-6.38 5.17-12.925 12.375-12.925 1.045 0 2.035.165 3.025.44l1.21-7.535zm2.09-.275h21.12l-1.21 7.7h-6.49L236.133 304h-8.195l5.335-33.77h-6.435l1.21-7.7zm24.86 0h8.195L254.558 304h-8.195l6.545-41.47zm27.225-.66c7.315 0 13.695 5.83 11.22 21.395-2.475 15.565-10.67 21.395-17.985 21.395-7.315 0-13.64-5.83-11.165-21.395 2.475-15.565 10.615-21.395 17.93-21.395zm-9.185 21.395c-.55 3.3-1.815 13.805 3.63 13.805s7.48-10.505 8.03-13.805c.55-3.685 1.76-13.805-3.685-13.805s-7.425 10.12-7.975 13.805zm27.995-20.735h7.865l6.27 25.025.165-.11c-.22-1.98 0-4.125.33-6.27l2.915-18.645h8.195L318.138 304h-7.755l-6.16-25.025-.11.11-.275 4.18-.22 1.705-3.025 19.03h-8.195l6.545-41.47zm48.345 1.375l-1.265 7.975c-1.375-1.43-3.245-2.64-5.5-2.64-2.53 0-4.345 1.54-4.785 4.07-1.045 6.82 11.385 7.205 9.57 18.425-1.155 7.37-6.27 12.925-13.97 12.925-2.31 0-5.06-.715-6.71-2.09l1.265-7.81c1.705 1.32 3.41 2.2 5.83 2.2 2.64 0 5.005-1.76 5.445-4.51.495-3.19-1.815-4.4-3.85-6.05-4.235-3.19-6.655-6.27-5.72-12.32 1.045-6.545 5.72-12.21 12.76-12.21 2.64 0 4.895.715 6.93 2.035z"/></g></g></svg>